<svg xmlns="http://www.w3.org/2000/svg" viewBox="0 0 24 24" fill="currentColor"><path d="M18.89 2.29H5.11A2.82 2.82 0 0 0 2.29 5.11v13.78a2.82 2.82 0 0 0 2.82 2.82h13.78a2.82 2.82 0 0 0 2.82-2.82V5.11a2.82 2.82 0 0 0-2.82-2.82Zm-7.78 12.06c-1.38 0-2.5-1.12-2.5-2.5s1.12-2.5 2.5-2.5 2.5 1.12 2.5 2.5-1.12 2.5-2.5 2.5Zm4.83-6.17a5.55 5.55 0 0 1-1.39 1.67 5.56 5.56 0 0 1 1.39 1.66l-1.94 1.95a8.31 8.31 0 0 0-1.67-2.22 8.36 8.36 0 0 0-1.67 2.22l-1.94-1.95a5.52 5.52 0 0 1 1.39-1.66 5.51 5.51 0 0 1-1.39-1.67l1.94-1.94c.38.48.94 1.25 1.67 2.22.73-.97 1.29-1.74 1.67-2.22l1.94 1.94Z" /></svg>
